<?xml version="1.0" encoding="UTF-8"?>
<svg id="_图层_2" data-name="图层 2" xmlns="http://www.w3.org/2000/svg" viewBox="0 0 1018 1018">
  <defs>
    <style>
      .cls-1 {
        fill: #6c7279;
      }

      .cls-2 {
        fill: #8bc0e3;
      }

      .cls-3 {
        fill: #b8e3f3;
      }

      .cls-4 {
        fill: #9c9ea6;
      }

      .cls-5 {
        fill: #40a8ec;
      }

      .cls-6 {
        fill: #244d7e;
      }

      .cls-7 {
        fill: #f8b58c;
      }

      .cls-8 {
        fill: #63371e;
      }

      .cls-9 {
        fill: #d38d76;
      }

      .cls-10 {
        fill: #f6b897;
      }
    </style>
  </defs>
  <g id="_图层_1-2" data-name="图层 1">
    <g>
      <rect class="cls-3" width="1018" height="1018"/>
      <g>
        <polygon class="cls-4" points="843 980 842.96 978.96 842 979 798 947 798 946 797 946 753 901 753 900 752 900 738.84 855 288.8 855 231.26 936.7 213.36 946 213.36 949.06 174 979 174 1018 844.65 1018 843 980"/>
        <rect class="cls-10" x="260" y="236.2" width="494.44" height="525.8"/>
        <polygon class="cls-10" points="619.01 798.06 394 798.06 394 854.5 432.76 854.5 432.76 900 580.24 900 580.24 854.5 619.01 854.5 619.01 798.06"/>
        <rect class="cls-9" x="215.95" y="302.87" width="44.05" height="92.15"/>
        <rect class="cls-9" x="753" y="302.87" width="44.05" height="92.15"/>
        <polygon class="cls-9" points="398.9 808.11 304.1 808.11 304.1 762 258.47 762 258.47 715 215 715 215 617.46 170 617.46 170 448.58 216.39 448.58 216.39 573 260 573 260 620 260 715 304.1 715 304.1 762 398.9 762 398.9 808.11"/>
        <polygon class="cls-9" points="614 808.11 708.81 808.11 708.81 762 754.44 762 754.44 715 797.9 715 797.9 617.46 842.9 617.46 842.9 448.58 796.51 448.58 796.51 573 752.9 573 752.9 620 752.9 715 708.81 715 708.81 762 614 762 614 808.11"/>
        <polygon class="cls-5" points="753 228.5 753 176.06 707.58 176.06 707.58 124.5 305.42 124.5 305.42 176.06 260 176.06 260 228.5 215.95 228.5 215.95 320.65 260 320.65 260 236.2 753 236.2 753 320.65 797.05 320.65 797.05 228.5 753 228.5"/>
        <g>
          <path class="cls-6" d="M483,428h48v-51h266v52h42.5c.54,0,2.22,1.55,3.5,1v47h-45v96h-45v47h-179v-47h-43v-97h-48v97h-44v47h-179v-47h-45v-96h-43.5l-1.5-1.5v-45l1.5-1.5h43l1.39-1.58.11-50.42h265.5l1.5,1.5v49.5ZM438,424h-178v148h178v-148ZM753,424h-179v148h179v-148Z"/>
          <path class="cls-8" d="M573.87,808l.15,45.02-4.45-.07c-43.52-.3-87.07.31-130.57.04v-44l-45-1v-141h45v-46h135v45.5h45.16l.76,141.54-46.05-.04Z"/>
          <polygon points="574 668 439 668 439 762 483 762 483 716 531 716 531 762 574 762 574 668"/>
          <g>
            <polygon class="cls-1" points="164 1018 174 1018 174 979 215 979 215 947 171 947 171 980 133 980 133 1018 135 1018 164 1018"/>
            <polygon class="cls-1" points="844 1018 843 980 885 980 885 1018 844 1018"/>
            <path class="cls-1" d="M448,1004c-13.05-.14-26.58.28-39.5,0-4.05-.09-8.99-1.93-13.5-1v-48h53c.58,16.26-.78,32.76,0,49,18.98.2,38.02-.14,57.01,0v14.01h-56.01c.88-4.72-.8-9.78-1-14Z"/>
            <rect class="cls-1" x="520" y="1004" width="56" height="14"/>
            <path class="cls-1" d="M618.99,808.04l44.96-.04v47c-14.65.03-30.3-.04-44.95,0-.02-12.78-.01-46.97-.01-46.97Z"/>
            <path class="cls-1" d="M619,854c.03,15.32-.03,30.69,0,46.01-14.98.08-30.02-.13-45.01,0-.05,15.32.03,30.69,0,46.01h-134.01s-1-45.01-1-45.01c29.38-1.73,59.04-.97,88.55-1.04,15.31-.04,30.93.17,46.46.04.05-15.31-.23-30.69,0-46,14.98.11,30.02.04,45,0Z"/>
            <path class="cls-1" d="M350,855c.5.36-1,1.29-1,1.5v43.5h-88.21v1.03s.29,33.11-.79,44.97h-45v-43.5l1.5-1.5h43.5l.24-44.54,1.26-1.46h88.5Z"/>
            <rect class="cls-1" x="663.95" y="855" width="88.05" height="45"/>
            <rect class="cls-1" x="334" y="907" width="60" height="48"/>
            <polygon class="cls-1" points="394 808 394 853 439 853 439 900 395 900 395 855 394 855.01 350.11 855.01 350 808 394 808"/>
            <polygon class="cls-1" points="798 947 843 947 842 979 798 979 798 947.5 798 947"/>
            <polygon class="cls-1" points="797 946 797 901 753 901 753 946 796.5 946 797 946"/>
            <rect class="cls-1" x="577" y="955" width="41" height="48.73"/>
            <rect class="cls-1" x="618" y="907" width="42" height="48"/>
          </g>
          <path class="cls-2" d="M438,424v148h-178v-148h178ZM341,476v49h46v-49h-46Z"/>
          <path class="cls-2" d="M753,424v148h-179v-148h179ZM672.04,476h-47.04v49h47.04v-49Z"/>
          <polygon class="cls-7" points="574 668 574 762 531 762 531 716 483 716 483 762 439 762 439 668 574 668"/>
          <rect class="cls-6" x="341" y="476" width="46" height="49"/>
          <rect class="cls-6" x="625" y="476" width="47.04" height="49"/>
        </g>
      </g>
    </g>
  </g>
</svg>