<?xml version="1.0" encoding="UTF-8"?>
<svg id="_图层_2" data-name="图层 2" xmlns="http://www.w3.org/2000/svg" viewBox="0 0 1018 1018">
  <defs>
    <style>
      .cls-1 {
        fill: #fff;
      }

      .cls-2 {
        fill: #ffb88f;
      }

      .cls-3 {
        fill: #3ab8ac;
      }

      .cls-4 {
        fill: #222424;
      }

      .cls-5 {
        fill: #4f5250;
      }

      .cls-6 {
        fill: #268f8d;
      }

      .cls-7 {
        fill: #d7947c;
      }

      .cls-8 {
        fill: #97989d;
      }

      .cls-9 {
        fill: #727472;
      }

      .cls-10 {
        fill: #787a7e;
      }

      .cls-11 {
        fill: #868887;
      }

      .cls-12 {
        fill: #bf8268;
      }

      .cls-13 {
        fill: #cd876f;
      }

      .cls-14 {
        fill: #99bf4d;
      }
    </style>
  </defs>
  <g id="_图层_1-2" data-name="图层 1">
    <g>
      <rect class="cls-14" width="1018" height="1018"/>
      <g>
        <rect class="cls-2" x="588.81" y="208.78" width="429.19" height="603.53" transform="translate(1606.81 1021.09) rotate(180)"/>
        <polygon class="cls-3" points="588.7 812.31 588.7 877.46 522.93 877.46 522.93 1018 1018 1018 1018 877.46 1018 812.31 588.7 812.31"/>
        <rect class="cls-5" x="522.93" y="456.53" width="65.78" height="99.56"/>
        <rect class="cls-9" x="522.93" y="556.09" width="65.78" height="125.93"/>
        <rect class="cls-10" x="588.7" y="622.75" width="65.15" height="59.26"/>
        <rect class="cls-4" x="653.85" y="622.75" width="65.63" height="59.26" transform="translate(1373.33 1304.76) rotate(180)"/>
        <rect class="cls-13" x="588.7" y="682.01" width="65.15" height="65.15"/>
        <rect class="cls-7" x="719.48" y="747.16" width="255.41" height="65.15" transform="translate(1694.37 1559.47) rotate(180)"/>
        <g>
          <rect class="cls-6" x="588.7" y="747.16" width="130.78" height="65.15"/>
          <rect class="cls-6" x="522.93" y="812.31" width="65.78" height="65.15"/>
          <rect class="cls-6" x="458.74" y="877.46" width="64.19" height="140.54"/>
          <rect class="cls-6" x="974.89" y="747.16" width="43.11" height="65.15"/>
          <rect class="cls-6" x="719.48" y="812.31" width="255.41" height="65.15"/>
        </g>
        <rect class="cls-12" x="783.33" y="622.75" width="127.56" height="59.26" transform="translate(1694.22 1304.76) rotate(180)"/>
        <rect class="cls-11" x="655.7" y="456.53" width="63.11" height="63.11" transform="translate(1374.52 976.17) rotate(180)"/>
        <rect class="cls-11" x="974.89" y="456.53" width="43.11" height="63.11" transform="translate(1992.89 976.17) rotate(180)"/>
        <polygon class="cls-8" points="654.48 71.34 654.48 131.79 588.11 131.79 588.11 196.97 522.93 196.97 522.93 328.53 522.93 456.53 588.7 456.53 588.7 328.53 654.48 328.53 654.48 262.16 1018 262.16 1018 131.79 1018 71.34 654.48 71.34"/>
      </g>
      <g>
        <path class="cls-1" d="M313.63,678.28l100.61-21.71-38.44-257.19c-.85-1.42-2.06-1.91-3.63-2.2-8.49-1.61-18.74-.45-27.4-2.24-5.77-5.25-10.96-11.61-16.75-16.77-.57-.51-2.3-2.05-3.61-3.11l-10.78,303.22Z"/>
        <path class="cls-1" d="M309.01,679.27l10.86-305.46c-5.16.48-12.16,3.99-13.48,3.17-5.41-14.44-14.84-31.65-31.87-33.73-1.78-.22-4.56.34-6-.31-1.05-.48-3.98-4.19-5.39-5.29-7.42-5.84-15.48-5.49-24.34-3.53-34.41,7.62-54.05,51.8-61.22,82.83-12.99,4.82-26.94,7.39-39.49,13.22-2.95,2.36-3.01,7.86-3.58,11.49-10.23,65.92-15.81,132.68-25.81,198.65v2.66s197.95,36.83,197.95,36.83l2.37-.51ZM266.34,389.38l-33.79,10.66c3.72-16.67,13.3-35.41,29.64-42.55,4,9.96,4.83,21.23,4.15,31.89ZM212.24,367.33c7.8-10.72,19.75-21.67,33.68-22.67,2.46-.18,7.71-.49,8.49,2.41-21.65,10.49-30.99,34.99-35.57,57.23l-27.09,8.37c4.53-15.76,10.8-32,20.49-45.33ZM269.88,457.49l-12.56,38.27c-10.22-4.2-21.48-7.58-32.65-5.7-9.34,1.57-18.32,9.41-14.55,19.63,3.2,8.69,25.02,21.25,32.65,29.53,24.28,26.36,14.22,75.79-21.28,86.11-19.6,5.7-44.51-.65-60.09-13.48-1.69-1.39-5.63-4.3-5.57-6.49l8.72-29.45c9.46,8.12,37.04,25.14,45.57,8.41,8.13-15.93-13.96-27.67-22.99-36.61-26.19-25.93-12.46-70.38,17.41-87.03,16.26-9.07,42.8-12.44,60.46-6.37,1.51.52,5.14,1.4,4.89,3.17ZM278.7,385.46c.37-10.37-.7-20.73-3.88-30.61,11.88,2.44,17.42,15.25,20.4,25.75l-16.52,4.86Z"/>
      </g>
    </g>
  </g>
</svg>